<?xml version="1.0" encoding="UTF-8" standalone="no"?>
<!-- Uploaded to: SVG Repo, www.svgrepo.com, Generator: SVG Repo Mixer Tools -->

<svg
   height="800px"
   width="800px"
   version="1.1"
   id="Capa_1"
   viewBox="0 0 47.94 47.94"
   xml:space="preserve"
   sodipodi:docname="star-svgrepo-com.svg"
   inkscape:version="1.3.2 (091e20ef0f, 2023-11-25, custom)"
   xmlns:inkscape="http://www.inkscape.org/namespaces/inkscape"
   xmlns:sodipodi="http://sodipodi.sourceforge.net/DTD/sodipodi-0.dtd"
   xmlns:xlink="http://www.w3.org/1999/xlink"
   xmlns="http://www.w3.org/2000/svg"
   xmlns:svg="http://www.w3.org/2000/svg"><defs
   id="defs1"><linearGradient
     id="linearGradient2"
     inkscape:collect="always"><stop
       style="stop-color:#4019ed;stop-opacity:1;"
       offset="0"
       id="stop2" /><stop
       style="stop-color:#ed19df;stop-opacity:1;"
       offset="1"
       id="stop3" /></linearGradient><linearGradient
     inkscape:collect="always"
     xlink:href="#linearGradient2"
     id="linearGradient3"
     x1="0.00060929624"
     y1="23.970046"
     x2="47.940391"
     y2="23.970046"
     gradientUnits="userSpaceOnUse" /></defs><sodipodi:namedview
   id="namedview1"
   pagecolor="#ffffff"
   bordercolor="#666666"
   borderopacity="1.0"
   inkscape:showpageshadow="2"
   inkscape:pageopacity="0.0"
   inkscape:pagecheckerboard="0"
   inkscape:deskcolor="#d1d1d1"
   inkscape:zoom="1.03375"
   inkscape:cx="400"
   inkscape:cy="400"
   inkscape:window-width="1920"
   inkscape:window-height="1012"
   inkscape:window-x="0"
   inkscape:window-y="32"
   inkscape:window-maximized="1"
   inkscape:current-layer="Capa_1" />
<path
   style="fill:url(#linearGradient3);fill-opacity:1"
   d="M26.285,2.486l5.407,10.956c0.376,0.762,1.103,1.29,1.944,1.412l12.091,1.757  c2.118,0.308,2.963,2.91,1.431,4.403l-8.749,8.528c-0.608,0.593-0.886,1.448-0.742,2.285l2.065,12.042  c0.362,2.109-1.852,3.717-3.746,2.722l-10.814-5.685c-0.752-0.395-1.651-0.395-2.403,0l-10.814,5.685  c-1.894,0.996-4.108-0.613-3.746-2.722l2.065-12.042c0.144-0.837-0.134-1.692-0.742-2.285l-8.749-8.528  c-1.532-1.494-0.687-4.096,1.431-4.403l12.091-1.757c0.841-0.122,1.568-0.65,1.944-1.412l5.407-10.956  C22.602,0.567,25.338,0.567,26.285,2.486z"
   id="path1" />
</svg>
