<?xml version="1.0" standalone="no"?>
<!DOCTYPE svg PUBLIC "-//W3C//DTD SVG 20010904//EN"
 "http://www.w3.org/TR/2001/REC-SVG-20010904/DTD/svg10.dtd">
<svg version="1.0" xmlns="http://www.w3.org/2000/svg"
 width="200.000000pt" height="200.000000pt" viewBox="0 0 200.000000 200.000000"
 preserveAspectRatio="xMidYMid meet">

<g transform="translate(0.000000,200.000000) scale(0.100000,-0.100000)"
fill="#000000" stroke="none">
<path d="M173 1873 c-48 -9 -48 -3 -51 -551 -2 -340 1 -533 8 -567 17 -80 73
-125 155 -125 84 0 139 53 151 143 9 62 -13 97 -60 97 -41 0 -58 -19 -65 -73
-5 -37 -9 -42 -31 -42 l-25 0 -3 498 c-2 394 0 497 10 497 30 0 144 -32 216
-60 247 -95 536 -370 747 -710 75 -122 74 -120 31 -110 -69 15 -151 -14 -203
-74 -115 -130 -30 -340 141 -354 65 -5 117 11 161 49 l34 30 102 -171 c56 -94
115 -182 131 -195 41 -35 98 -33 164 4 62 36 84 68 84 122 0 36 -17 72 -113
233 -131 224 -155 254 -206 262 -34 5 -40 12 -86 97 -27 51 -88 151 -136 222
-302 451 -663 724 -1023 774 -79 11 -94 12 -133 4z m1108 -1152 c48 -48 37
-116 -22 -147 -62 -32 -129 11 -129 82 0 35 5 47 31 68 41 35 83 34 120 -3z"/>
</g>
</svg>
