<?xml version="1.0" standalone="no"?>
<!DOCTYPE svg PUBLIC "-//W3C//DTD SVG 20010904//EN"
 "http://www.w3.org/TR/2001/REC-SVG-20010904/DTD/svg10.dtd">
<svg version="1.0" xmlns="http://www.w3.org/2000/svg"
 width="200.000000pt" height="200.000000pt" viewBox="0 0 200.000000 200.000000"
 preserveAspectRatio="xMidYMid meet">

<g transform="translate(0.000000,200.000000) scale(0.100000,-0.100000)"
fill="#000000" stroke="none">
<path d="M609 1769 c-46 -33 -85 -66 -87 -74 -2 -7 13 -37 34 -65 20 -28 33
-55 28 -59 -5 -4 -54 -42 -109 -83 -123 -92 -184 -157 -224 -237 -82 -161 -81
-332 1 -495 45 -88 77 -128 102 -124 20 3 21 8 17 89 -9 222 75 370 301 529
54 39 102 70 106 70 4 -1 187 -248 407 -551 220 -302 410 -559 422 -570 52
-50 153 -30 188 36 39 71 41 66 -397 667 -222 304 -407 558 -411 564 -3 6 18
29 53 54 100 73 110 126 42 219 -74 100 -119 104 -235 20 -22 -16 -43 -29 -46
-29 -4 0 -24 23 -44 50 -21 28 -43 50 -51 50 -7 0 -51 -27 -97 -61z"/>
</g>
</svg>
